<svg width="107" height="104" viewBox="0 0 107 104" fill="none" xmlns="http://www.w3.org/2000/svg">
<path d="M3.03901 99.6069L2.55933 102H5H55.4432C64.043 102 71.7338 100.881 78.4863 98.6037C85.2797 96.3124 90.7053 92.786 94.6494 87.9665C98.7417 82.9866 100.739 76.8499 100.739 69.6914C100.739 62.2249 98.0978 56.2902 92.6744 52.1979C91.9083 51.5963 91.1059 51.0411 90.2682 50.5317C94.0587 48.446 97.2374 45.7325 99.7754 42.3842C103.292 37.8671 105 32.3444 105 25.9429C105 18.1948 101.913 12.1117 95.7363 7.96625C89.7667 3.89871 81.3327 2 70.6999 2H24.2426H22.6037L22.2816 3.60693L3.03901 99.6069ZM32.9996 81.2686L36.9015 61.5429H62.1781C66.3708 61.5429 69.4477 62.2884 71.5879 63.5849L71.6233 63.6064L71.6596 63.6263C73.5542 64.6693 74.6101 66.4271 74.6101 69.4172C74.6101 73.3689 73.118 76.1931 70.1469 78.1715C67.1114 80.1621 62.7379 81.2686 56.8177 81.2686H32.9996ZM61.0785 41.36H40.8938L44.5786 22.7314H65.4769C69.7925 22.7314 72.8661 23.4418 74.9049 24.6473L74.9289 24.6615L74.9532 24.6749C76.6963 25.6412 77.6339 27.1942 77.6339 29.7829C77.6339 32.3508 76.9985 34.4465 75.8061 36.1647C74.6238 37.7787 72.8399 39.0694 70.3073 39.9661L70.2974 39.9696L70.2876 39.9732C67.8159 40.8775 64.7623 41.36 61.0785 41.36Z" fill="#6184C6" stroke="#FAD754" stroke-width="4"/>
</svg>
