<svg width="379" height="463" viewBox="0 0 379 463" fill="none" xmlns="http://www.w3.org/2000/svg">
<g clip-path="url(#clip0_47_2)">
<path d="M332.9 101.35C345.69 110.86 345.85 128.3 332.38 137.14C325.44 138.73 322.04 137.89 316.04 134.03C302.76 121.32 314.4 97.4 332.9 101.35Z" fill="#00A7C5"/>
<path d="M332.38 137.14C345.84 128.3 345.69 110.86 332.9 101.35C350.75 105.17 352.44 132.54 332.38 137.14Z" fill="#117EBD"/>
<path d="M88.59 429.69C182.83 430.15 277.05 430.29 371.29 430.21C370.73 446.93 371.95 458.53 352.36 462.37H27.64C8.06 458.83 9.96 446.8 10.26 430.21C34.61 430.3 59.03 429.57 83.4 429.69C85.14 429.69 86.85 429.69 88.59 429.69Z" fill="#2E3C57"/>
<path d="M1.45 422.95H71.48C65.15 431.02 80.42 429.67 81.08 429.17C82.36 428.21 83.21 422.7 78.75 422.95H374.41C379.08 420.83 378.57 428.41 378.04 429.43C377.47 430.53 372.56 430.21 371.3 430.21C277.06 430.29 182.84 430.15 88.6 429.69C89.18 421.34 87.24 427.17 83.41 429.69C59.05 429.57 34.62 430.3 10.27 430.21C3.99 430.19 -1.57 431.92 0.409999 423.21C0.509999 422.77 1.43 423 1.45 422.95Z" fill="#0F1E32"/>
<path d="M88.59 429.69C86.85 429.69 85.14 429.69 83.4 429.69C87.23 427.17 89.17 421.34 88.59 429.69Z" fill="#DF9DA2"/>
<path d="M78.73 422.95C83.19 422.7 82.34 428.21 81.06 429.17C80.4 429.67 65.13 431.02 71.46 422.95H78.72H78.73Z" fill="#EF7122"/>
<path d="M359.35 207.68C359.42 207.76 360.62 207.88 360.39 209.5C360.23 210.61 350.76 226.4 349.24 228.95C347.61 229.48 327.06 220.54 326.68 219.35C326.47 217.89 327.69 217.14 327.72 217.02C347.21 223.41 337.36 217.57 337.06 216.76C336.12 214.3 342.64 216.97 342.77 217.28C343.24 218.41 334.88 219.76 346.66 223.76L359.37 207.68H359.35Z" fill="#E46738"/>
<path d="M359.35 207.68L346.64 223.76C334.86 219.76 343.22 218.4 342.75 217.28C342.62 216.98 336.11 214.3 337.04 216.76C337.35 217.56 347.2 223.41 327.7 217.02C328.96 210.66 333.31 202.77 336.78 197.31C337.98 196.99 357.69 205.67 359.34 207.68H359.35Z" fill="#F5BB2C"/>
<path d="M342.5 203.53C347.91 202.52 348.74 209.84 345.09 210.79C339.92 212.14 337.7 204.43 342.5 203.53Z" fill="#D5992F"/>
<path d="M13.38 195.75L31.28 196.79C34.1333 191.257 36.9867 185.723 39.84 180.19C40.87 180.93 47.5 190.18 47.62 190.82C48.21 194.05 41.7 206.91 40.1 207.68C28.64 209.72 18.48 206.86 13.39 195.75H13.38Z" fill="#E46738"/>
<path d="M39.83 180.19C36.9767 185.723 34.1233 191.257 31.27 196.79L13.37 195.75L12.85 194.45C19.62 180.98 17.41 176.4 28.67 177.07C29.91 177.14 38.71 179.38 39.82 180.18L39.83 180.19Z" fill="#F5BB2C"/>
<path d="M22.45 179.16C26.45 177.88 29.11 182.92 26.08 184.87C20.66 188.35 18.72 180.36 22.45 179.16Z" fill="#928532"/>
<path d="M27.12 188.49C28.93 188.93 26.38 194.81 21.67 190.31L27.12 188.49Z" fill="#95612B"/>
<path d="M341.72 374.71C341.76 374.37 341.69 374.01 341.72 373.67C343.43 356 339.32 341.45 327.2 328.28L320.46 297.68C318.21 295.12 314.35 295.13 312.16 292.49C309.11 288.82 302.03 263.57 287.52 251.25C277.04 242.35 266.34 240.29 254.32 235.17C251.38 233.92 248.69 231.81 245.76 230.5C244.98 230.15 243.54 228.48 242.65 229.2C237.24 249.89 216.63 268.17 195.19 269.4C180.27 270.25 186.2 263.85 185.08 251.76C199.97 250.87 216.69 246.92 226.58 234.9C230.81 229.76 231.44 226.23 231.77 225.82C235.31 221.38 239.91 217.75 243.18 213.11C251.86 200.82 254.73 185.9 257.19 171.35C258.68 172.27 260.51 174.9 262.38 173.94C263 174.26 264.03 174.9 264.45 174.98C270.85 176.22 276.77 172.54 280.53 167.72C293.31 151.31 284.13 124.18 262.38 137.63C263.38 134.08 263.97 122.56 264.97 117.14C266.9 106.77 269.89 94.93 271.19 84.72C279.76 92.49 284.49 104.59 282.08 116.1C301.46 120.92 308.04 150.73 295.57 163.82C296.86 183.39 278.35 186.63 277.93 188.2C282.04 210.25 263.97 212.09 263.41 213.62C263.3 213.91 264.34 216.93 263.93 219.84C279.05 224.74 294.78 240.6 294.53 257.19C307.89 266.98 337.51 297.5 336.03 313.21C353.11 332.81 351.54 360.03 353.67 384.27C348.94 382.14 345.5 378.09 341.74 374.67L341.72 374.71Z" fill="#FEFEFD"/>
<path d="M103.63 72.3L104.67 73.6C103.76 87.65 105.05 103.2 109.34 116.65C109.86 123.2 108.64 134.35 109.34 139.73C98.08 128.32 79.73 143.31 90.15 165.15C94.96 175.23 103.67 180.07 114.01 173.97C118.09 195.73 125.45 214.59 144.61 226.88C143.27 228.09 148.05 235.47 149.28 236.99C156.78 246.32 170.37 250.96 181.96 252.29C181.27 267.77 185.82 271.8 171.33 269.41C152.03 266.22 136.11 247.23 136.32 227.65C135.53 226.35 133.79 228.86 132.69 229.47C111.07 241.3 99.28 245.66 93.79 273.04C89.99 273.04 86.18 273.02 82.38 273.04C77.2 273.06 72 272.94 66.82 273.04C74.02 265.47 82.74 258.43 93.27 256.7C93.33 248.48 97.8 240.06 105.2 235.95C104.36 222.62 115.36 226.1 112.98 213.65C100.32 210.57 94.47 203.51 95.34 190.31C67.65 184.48 59.21 140.5 84.45 126.51C82.95 112.47 86.1 97.44 97.42 88.13C98.42 83.03 99.53 75.37 102.09 71.27C102.13 71.35 103.34 72.16 103.65 72.31L103.63 72.3Z" fill="#FEFEFD"/>
<path d="M271.17 83.19C272.84 69.01 273.82 54.97 267.54 41.69C250.85 6.39 187.45 10.47 156.54 19.9C159.81 8.05 180.9 2 192.07 0.710005C224.41 -3.03 259.08 7.42 271.17 40.39C274.71 50.04 280.95 80.99 271.17 83.18V83.19Z" fill="#FEFEFD"/>
<path d="M133.2 30.29C129.1 33.39 125.81 37.47 123.86 42.22C123.61 41.91 119.79 39.71 119.45 39.63C111.11 37.59 107.54 47.02 106.22 53.64L105.7 43.27C105.79 43.14 106.85 43.54 107.26 43.01C109.73 33.17 124.6 22.32 133.2 30.3V30.29Z" fill="#FEFEFD"/>
<path d="M267.54 41.7C273.82 54.98 272.84 69.02 271.17 83.2C271.11 83.71 271.23 84.25 271.17 84.76C269.87 94.97 266.87 106.81 264.95 117.18C263.94 122.6 263.35 134.12 262.36 137.67C261.73 139.91 256.95 148.97 254.06 145.19C252.02 142.53 250.75 97.74 238.24 80.61C208.73 85.18 191.08 70.68 164.58 71.27C155.4 71.48 130.98 75.78 124.9 82.94C117.44 91.72 118.51 136.35 114.79 149.59C114.01 149.97 109.9 143.98 109.34 139.73C108.64 134.35 109.86 123.2 109.34 116.65C105.06 103.2 103.76 87.65 104.67 73.6L103.63 72.3C105.95 67.52 101.04 55.19 105.96 55.18L106.22 53.62C107.54 47.01 111.11 37.57 119.45 39.61C119.79 39.69 123.61 41.9 123.86 42.2C125.12 43.77 124.79 43.84 124.9 45.57C125.3 51.75 117.93 51.69 117.12 49.2C118.13 36.01 108.12 49.64 111.15 59.31C135.31 51.57 128.64 60.61 137.6 39.08C138.4 41.85 137.28 52 139.16 53.6C146.76 60.07 137.42 41.28 151.09 32.33C151.8 31.86 157.48 29.11 157.83 29.22C160.89 30.11 151.03 35.34 149.79 41.93C149.14 45.4 150.79 56.8 156.01 54.9C155.37 31.79 158.01 58.21 168.72 55.68C182.01 49.84 176.74 60.64 191.02 43.23L191.8 44.01C182.69 65.11 191.65 55.45 198.8 41.16C200.46 39.8 223 32.81 219.55 37.01C218.61 38.16 195.53 45.43 196.21 53.61L214.36 51.02C215.2 56.04 210.82 64.46 215.92 63.99C221.92 63.43 239.09 50.63 256.9 51.02C274.4 51.41 267.82 63.58 270.91 76.44C271.67 64.83 272 52.41 266.5 41.95L267.54 41.69V41.7Z" fill="#161522"/>
<path d="M267.54 41.7L266.5 41.96C272 52.43 271.67 64.84 270.91 76.45C267.83 63.59 274.41 51.42 256.9 51.03C239.09 50.63 221.92 63.44 215.92 64C210.82 64.47 215.2 56.05 214.36 51.03L196.21 53.62C195.53 45.44 218.61 38.17 219.55 37.02C223 32.82 200.46 39.81 198.8 41.17C191.65 55.47 182.69 65.12 191.8 44.02L191.02 43.24C176.74 60.65 182.01 49.85 168.72 55.69C158.01 58.22 155.37 31.8 156.01 54.91C150.79 56.82 149.13 45.42 149.79 41.94C151.03 35.35 160.89 30.12 157.83 29.23C157.47 29.13 151.8 31.88 151.09 32.34C137.42 41.28 146.76 60.08 139.16 53.61C137.28 52.01 138.4 41.86 137.6 39.09C128.63 60.62 135.3 51.58 111.15 59.32C108.12 49.64 118.13 36.01 117.12 49.21C117.93 51.7 125.3 51.76 124.9 45.58C124.79 43.85 125.12 43.78 123.86 42.21C125.8 37.46 129.1 33.38 133.2 30.28C138.7 26.13 149.77 21.97 156.54 19.91C187.45 10.47 250.86 6.39 267.54 41.7Z" fill="#0F1E32"/>
<path d="M105.71 43.25L106.23 53.62L105.97 55.18C101.04 55.19 105.96 67.52 103.64 72.3C103.34 72.16 102.13 71.34 102.08 71.26C94.32 57.08 96.87 54.97 105.71 43.25Z" fill="#161522"/>
<path d="M231.75 225.84C231.42 226.25 230.79 229.78 226.56 234.92C216.67 246.94 199.95 250.89 185.06 251.78V249.19C201.16 249.27 218.32 242.64 227.59 228.96C229.5 227.81 230.32 225.72 231.74 225.85L231.75 225.84Z" fill="#8DCEE7"/>
<path d="M153.43 233.1C161.01 243.24 168.91 248.21 181.96 249.18V252.29C170.37 250.96 156.79 246.31 149.28 236.99C148.05 235.46 143.27 228.08 144.61 226.88C147.06 228.45 149.99 229.38 152.65 230.51C153.87 231.07 153.21 232.81 153.43 233.1Z" fill="#8DCEE7"/>
<path d="M340.16 379.38C340.07 379.77 340.81 379.38 340.16 381.45C337.14 391.13 332 398.25 323.04 403.24C316.65 402.65 310.05 404.26 303.85 402.2C309.79 388.82 304.86 373.66 304.37 359.67C319.06 359.34 334.1 365.16 340.16 379.38Z" fill="#E39D84"/>
<path d="M322.01 356.04C330.88 359.28 336.93 368.98 337.83 369.53C337.88 369.56 338.28 368.87 338.61 369.01C339.56 370.54 340.65 372.23 341.72 373.68C341.69 374.02 341.76 374.38 341.72 374.72C341.3 378.22 340.22 379.15 340.16 379.39C334.1 365.17 319.06 359.34 304.37 359.68C304.27 356.78 299.89 352.42 314.48 353.97C316.55 354.19 319.99 355.31 322 356.04H322.01Z" fill="#9D4F59"/>
<path d="M323.05 403.24C316.11 407.1 307.68 409.94 299.71 408.43C300.43 407.69 303.42 403.19 303.86 402.21C310.06 404.26 316.66 402.65 323.05 403.25V403.24Z" fill="#B75B69"/>
<path d="M324.08 355.52C330.86 358.64 334.7 362.7 338.6 369.01C338.27 368.87 337.87 369.56 337.82 369.53C336.92 368.98 330.87 359.28 322 356.04L324.07 355.52H324.08Z" fill="#5B2D29"/>
<path d="M227.6 228.95C218.33 242.63 201.16 249.26 185.07 249.18C184.29 249.18 182.11 249.19 181.96 249.18C168.91 248.21 161.01 243.24 153.43 233.1C174.31 241.86 208.27 240.58 227.61 228.95H227.6Z" fill="#562639"/>
<path d="M262.36 137.66C284.11 124.2 293.3 151.34 280.51 167.75C274.34 172.61 274.67 170.27 274.29 164.12C274.19 162.49 274.92 161.55 274.81 159.71C274.47 154.06 270.1 149.38 276.37 150.63C277.27 155.57 279.49 144.76 274.04 141.29C270.57 139.08 266.41 139.47 263.15 141.81C258.18 145.38 259.56 155.07 257.18 169.3C257.07 169.96 257.29 170.71 257.18 171.37C254.72 185.91 251.85 200.84 243.17 213.13C239.89 217.77 235.29 221.4 231.76 225.84C230.34 225.71 229.52 227.81 227.61 228.95C208.28 240.58 174.31 241.86 153.43 233.1C153.21 232.81 153.87 231.06 152.65 230.51C149.99 229.38 147.06 228.45 144.61 226.88C125.44 214.6 118.09 195.73 114.01 173.97C113.88 173.28 113.63 171.71 112.97 171.38C112.04 165.55 112.69 149.98 109.86 146.22C105.74 140.75 94.09 143.53 96.37 151.15C97.77 151.12 98.69 150.96 100 151.67C100.65 152.02 101.08 152.43 101.56 152.97C98.43 162.72 103.21 170.77 108.82 164.12C108.99 166.19 110.69 170.08 110.38 171.9C108.99 179.88 91.8 169.03 90.15 165.16C79.73 143.33 98.09 128.33 109.34 139.74C109.89 143.99 114.01 149.98 114.79 149.6C118.51 136.35 117.44 91.73 124.9 82.95C130.98 75.79 155.4 71.48 164.58 71.28C191.08 70.69 208.73 85.18 238.24 80.62C250.75 97.75 252.02 142.54 254.06 145.2C256.95 148.98 261.73 139.92 262.36 137.68V137.66Z" fill="#E39D84"/>
<path d="M110.37 171.89L112.96 171.37C113.61 171.71 113.87 173.27 114 173.96C103.65 180.06 94.95 175.23 90.14 165.14C91.78 169.01 108.98 179.87 110.37 171.88V171.89Z" fill="#B75B69"/>
<path d="M219.04 173.97C241.43 173.7 241.75 194.1 220.08 193.16C197.76 192.19 197.29 174.23 219.04 173.97Z" fill="#D27F7E"/>
<path d="M212.3 120.54C222.23 119.95 240.03 125.51 236.42 132.73C233.86 137.85 227.25 132.57 223.71 131.95C209.18 129.43 202.36 134.92 198.29 131.95C191.88 127.28 203.33 121.07 212.3 120.54Z" fill="#161522"/>
<path d="M145.91 120.54C151.66 120.26 166.95 122.49 164.32 131.17C162.73 136.42 155.95 129.68 141.76 131.43C139.71 131.68 126.38 137.7 128.01 129.1C128.92 124.32 141.83 120.74 145.91 120.54Z" fill="#161522"/>
<path d="M205.04 196.79C207.83 194.86 210.09 197.49 207.37 204.83C200.77 222.68 169.08 223.77 159.65 207.94C158.55 206.09 154.08 195.99 159.91 198.86C161.43 199.61 162.98 217.42 186.36 214.94C204.17 213.05 203.88 197.59 205.03 196.79H205.04Z" fill="#0F1E32"/>
<path d="M147.46 147.51C158.03 145.75 159.84 168.34 150.05 169.3C138.65 170.42 139.09 148.9 147.46 147.51Z" fill="#161522"/>
<path d="M216.45 147.51C226.12 146.55 228.18 166.93 219.04 168.78C206.31 171.36 207.36 148.42 216.45 147.51Z" fill="#161522"/>
<path d="M153.43 177.08C152.11 181.44 153.82 185.75 147.98 187.97C142.81 189.93 132.87 185.12 132.16 183.04C131.24 180.36 134.8 179.2 131.64 177.07C138.45 173.6 146.49 173.52 153.43 177.07V177.08Z" fill="#D27F7E"/>
<path d="M131.64 177.08C134.8 179.21 131.24 180.37 132.16 183.05C132.87 185.13 142.81 189.94 147.98 187.98C153.82 185.76 152.11 181.44 153.43 177.09C159.93 180.42 161.5 185.95 154.73 190.06C140.38 198.77 114.77 185.68 131.65 177.09L131.64 177.08Z" fill="#D27F7E"/>
<path d="M178.58 161.52C185.03 158.95 177.84 174.04 178.84 176.3C179.56 177.94 183.41 176.23 184.03 177.86C185.3 181.19 175.7 183.03 174.69 176.82C174.51 175.68 177.85 161.81 178.58 161.52Z" fill="#0F1E32"/>
<path d="M112.97 171.38L110.38 171.9C110.7 170.08 108.99 166.18 108.82 164.12C108.28 157.43 109.53 146.93 103.63 145.97C100.46 145.45 96.93 147.85 96.37 151.16C94.09 143.55 105.73 140.76 109.86 146.23C112.69 149.99 112.04 165.55 112.97 171.39V171.38Z" fill="#161522"/>
<path d="M108.82 164.11C103.2 170.76 98.42 162.71 101.56 152.96C101.09 152.42 100.65 152.01 100 151.66C102.06 147.1 109.61 159.29 107.26 150.36C106.95 149.17 103.98 147.23 103.63 145.95C109.53 146.92 108.28 157.41 108.82 164.1V164.11Z" fill="#B75B69"/>
<path d="M103.63 145.96C103.98 147.24 106.95 149.17 107.26 150.37C109.61 159.3 102.05 147.11 100 151.67C98.69 150.96 97.77 151.12 96.37 151.15C96.94 147.85 100.46 145.44 103.63 145.96Z" fill="#B75B69"/>
<path d="M245.76 230.51C248.69 231.82 251.38 233.93 254.32 235.18C266.34 240.3 277.03 242.36 287.52 251.26C302.03 263.57 309.11 288.83 312.16 292.5C314.35 295.14 318.21 295.13 320.46 297.69L327.2 328.29C339.33 341.45 343.43 356.01 341.72 373.68C340.65 372.23 339.55 370.54 338.61 369.01C334.7 362.7 330.87 358.65 324.09 355.52C316.9 352.21 311.38 351.06 303.34 352.67L301.27 336.07C305.937 335.55 310.607 335.03 315.28 334.51C310.7 334.25 306.117 333.99 301.53 333.73C296.29 309.15 303.88 320.28 308.27 317.65C312 315.41 299.89 316.46 299.19 315.83C295.82 312.78 305.07 280.84 273.77 273.56C272.46 273.25 268.42 273.24 268.06 272.78C276.42 257.96 273.62 260.94 266.24 273.56L247.83 272.78C250.66 266.73 254.06 260.74 256.13 254.37C256.16 254.26 257.71 253.04 256.91 252.3C255.75 252.99 256.28 254.11 256.13 254.37C254.06 258.08 247.04 273.22 246.02 273.56H227.87L227.09 272.78C240.5 259.71 235.82 262.06 224.24 273.56C217.77 273.71 211.26 273.35 204.79 273.56C191.35 273.99 178.29 274.02 164.85 273.56C158.55 273.35 152.22 273.72 145.92 273.56C136.34 261.49 131.84 259.83 144.1 272.78L143.32 273.56C136.34 274.1 129.26 273.07 122.31 273.04C121.94 270.57 117.81 265.15 116.09 263.7L120.76 266.55C122.84 272.74 120.71 262.34 116.87 254.36L116.09 254.62L119.72 263.44L116.09 263.7C109.96 258.52 118.39 267.24 121.8 273.04C112.48 273 103.11 273.04 93.79 273.04C99.28 245.66 111.07 241.3 132.69 229.47C134.23 247.9 145.08 264.92 163.03 270.97C181.7 277.26 183.17 270.58 184.3 270.45C185.82 270.28 189.58 278.53 213.35 268.89C230.2 262.05 240.73 247.6 245.77 230.51H245.76Z" fill="#F5A825"/>
<path d="M181.96 252.29V249.18C182.12 249.19 184.3 249.18 185.07 249.18V251.77C186.19 263.85 180.26 270.26 195.18 269.41C216.63 268.18 237.23 249.91 242.64 229.21C243.53 228.49 244.97 230.16 245.75 230.51C240.71 247.6 230.18 262.06 213.33 268.89C189.56 278.53 185.8 270.28 184.28 270.45C183.15 270.57 181.69 277.26 163.01 270.97C145.05 264.92 134.21 247.9 132.67 229.47C133.77 228.87 135.51 226.35 136.3 227.65C136.1 247.23 152.01 266.22 171.31 269.41C185.81 271.8 181.25 267.77 181.94 252.29H181.96Z" fill="#1C1E1B"/>
<path d="M116.08 263.71L119.71 263.45L116.08 254.63L116.86 254.37C120.7 262.35 122.83 272.75 120.75 266.56L116.08 263.71Z" fill="#4E2C11"/>
<path d="M116.08 263.71C117.8 265.16 121.93 270.57 122.3 273.05C122.13 273.05 121.96 273.05 121.78 273.05C118.38 267.26 109.94 258.53 116.07 263.71H116.08Z" fill="#4E2C11"/>
<path d="M256.13 254.37C256.28 254.11 255.75 252.98 256.91 252.3C257.71 253.05 256.17 254.27 256.13 254.37Z" fill="#2E2614"/>
<path d="M276.36 150.63C275.99 145.32 271.49 140.95 266.25 143.89C262.12 146.21 262.32 157.2 261.84 162.04C261.63 164.15 259.91 167.67 260.28 169.56C260.91 172.71 267.25 173.62 264.43 175.01C264.01 174.93 262.98 174.29 262.36 173.97C260.59 173.07 259.02 170.31 257.17 169.3C259.54 155.07 258.16 145.37 263.14 141.81C266.41 139.47 270.56 139.08 274.03 141.29C279.48 144.76 277.26 155.56 276.36 150.63Z" fill="#161522"/>
<path d="M274.29 164.11C274.68 170.26 274.35 172.6 280.51 167.74C276.75 172.57 270.83 176.24 264.43 175C267.25 173.61 260.91 172.71 260.28 169.55C259.9 167.66 261.63 164.13 261.84 162.03C266.21 167.84 268.31 169.57 274.29 164.1V164.11Z" fill="#D27F7E"/>
<path d="M262.36 173.97C260.49 174.93 258.66 172.3 257.17 171.38C257.28 170.72 257.06 169.97 257.17 169.31C259.02 170.32 260.59 173.08 262.36 173.98V173.97Z" fill="#B75B69"/>
<path d="M276.36 150.63C270.09 149.38 274.46 154.06 274.8 159.71C274.91 161.54 274.18 162.49 274.28 164.12C268.3 169.59 266.2 167.85 261.83 162.05C262.31 157.21 262.11 146.21 266.24 143.9C271.48 140.96 275.99 145.34 276.35 150.64L276.36 150.63Z" fill="#9D4F59"/>
<path d="M269.88 154.26C270.06 154.21 271.6 157.32 271.7 157.63C274.06 165.55 269.91 160.62 269.88 154.26Z" fill="#5F1C29"/>
<path d="M22.71 302.61C22.71 312.36 33.37 381.4 36.2 391.57C39.51 403.47 45.29 413.8 58.25 416.21H282.85C288.71 415.1 295.43 412.85 299.71 408.43C307.68 409.94 316.12 407.1 323.05 403.24C332.01 398.26 337.15 391.13 340.17 381.45C348.57 390.34 352.04 404.71 350.03 416.98C358.58 418.19 368.95 414.44 374.41 422.95H1.45C1.59 422.6 0.899999 422.23 0.929999 422.17C6.28 413.35 22.92 417.17 31.53 415.95C15.51 394 11.37 355.54 14.93 329.33C15.66 323.94 19.68 306.64 22.71 302.62V302.61Z" fill="#FEFEFD"/>
<path d="M73.29 418.8C75.35 417.83 76.66 421.06 74.85 421.91C72.79 422.88 71.48 419.65 73.29 418.8Z" fill="#43717D"/>
<path d="M66.8 273.04C71.98 272.94 77.18 273.06 82.36 273.04C82.36 273.39 82.23 273.99 82.62 274.08C87.6 275.26 153.02 273.56 164.84 273.56C178.28 274.02 191.34 273.99 204.78 273.56H273.77C305.06 280.85 295.82 312.78 299.19 315.83C299.88 316.46 312 315.41 308.27 317.65C303.88 320.28 296.29 309.15 301.53 333.73C306.11 333.99 310.693 334.25 315.28 334.51C310.613 335.03 305.943 335.55 301.27 336.07L303.34 352.67C311.38 351.06 316.9 352.21 324.09 355.52L322.02 356.04C320.01 355.31 316.57 354.19 314.5 353.97C299.9 352.42 304.28 356.77 304.39 359.68C304.88 373.67 309.81 388.83 303.87 402.21C303.43 403.2 300.44 407.69 299.72 408.43C295.45 412.85 288.72 415.1 282.86 416.21H58.24C45.29 413.8 39.51 403.47 36.19 391.57C33.36 381.41 22.69 312.36 22.7 302.61C22.7 294.95 23.13 289.6 27.89 283.16C37.47 270.2 52.69 273.31 66.79 273.05L66.8 273.04Z" fill="#0F1E32"/>
<path d="M164.84 273.56C153.03 273.56 87.6 275.26 82.62 274.08C82.23 273.99 82.36 273.39 82.36 273.04C86.16 273.02 89.97 273.04 93.77 273.04C103.09 273.04 112.46 273 121.78 273.04C121.96 273.04 122.13 273.04 122.3 273.04C129.25 273.07 136.32 274.1 143.31 273.56L144.09 272.78C131.82 259.83 136.32 261.49 145.91 273.56C152.21 273.72 158.55 273.35 164.84 273.56Z" fill="#1F1C11"/>
<path d="M273.77 273.56H204.78C211.25 273.35 217.76 273.71 224.23 273.56C235.81 262.06 240.49 259.71 227.08 272.78L227.86 273.56H246.01C247.04 273.22 254.06 258.08 256.12 254.37C254.05 260.75 250.65 266.73 247.82 272.78L266.23 273.56C273.61 260.94 276.41 257.96 268.05 272.78C268.4 273.23 272.44 273.25 273.76 273.56H273.77Z" fill="#2E2614"/>
<path d="M292.44 406.35C251.55 380.35 212.68 351.26 172.36 324.39C170.1 323.9 169.64 324.43 169.51 324.39C159.23 321.07 148.42 319.35 138.13 316.09C122.69 311.2 102.93 302.21 88.33 294.82C78.44 289.81 68.33 283.94 59.02 278.22C130 279.02 200.98 278.27 271.95 278.74C281.51 281.18 288.64 287.96 290.88 297.67C291.92 302.17 301.09 384.88 300.74 389.48C300.28 395.39 297.08 402.54 292.44 406.34V406.35Z" fill="#00A7C5"/>
<path d="M259.5 305.2C274.2 301.87 273.25 325.5 258.98 321.28C251.16 318.97 253.5 306.56 259.5 305.2Z" fill="#0F1E32"/>
<path d="M292.44 406.35C289.91 408.42 289.27 408.88 285.96 409.98C253.58 408.43 69.64 412.02 57.21 409.98C52.51 409.21 47.71 404.76 45.54 400.64C63.8667 389.4 82.1933 378.16 100.52 366.92C103.7 386.3 121.49 388.27 128.53 376.52C133.34 368.5 132.61 356.93 126.46 349.81C140.813 341.337 155.163 332.863 169.51 324.39C169.65 324.43 170.1 323.9 172.36 324.39C212.68 351.26 251.55 380.34 292.44 406.35Z" fill="#023F5E"/>
<path d="M174.44 334.77L176.26 335.55C176.18 358.8 179.17 382.22 178.59 405.32C174.4 406.51 175.08 402.96 174.7 397.28C173.36 377.44 174.49 354.83 174.44 334.78V334.77Z" fill="#0F1E32"/>
<path d="M59.02 278.23C68.32 283.95 78.44 289.82 88.33 294.83C102.92 302.22 122.69 311.21 138.13 316.1C148.43 319.36 159.23 321.08 169.51 324.4C155.157 332.873 140.807 341.347 126.46 349.82C116.57 338.39 96.54 342.65 100.52 366.94C82.1933 378.18 63.8667 389.42 45.54 400.66C41.06 392.17 29.66 322.81 28.94 310.66C27.57 287.41 34.47 277.33 59.03 278.24L59.02 278.23Z" fill="#18839F"/>
<path d="M67.06 347.74C67.92 347.67 79.78 360.7 74.84 360.71C74.01 360.71 62.92 348.07 67.06 347.74Z" fill="#063446"/>
<path d="M67.58 309.87C68.48 309.8 80.81 323.35 75.88 323.36C75.01 323.36 63.99 310.15 67.58 309.87Z" fill="#063446"/>
<path d="M126.45 349.81C132.61 356.93 133.33 368.5 128.52 376.52C121.48 388.27 103.69 386.3 100.51 366.92C96.52 342.63 116.56 338.37 126.45 349.8V349.81Z" fill="#0F1E32"/>
<path d="M113.23 358.63C125.25 356.49 124.47 382.2 112.71 375.75C106.45 372.32 107.21 359.7 113.23 358.63Z" fill="#022B45"/>
<path d="M117.38 347.74C118.69 347.57 120.59 348.53 121.53 349.3C125.93 352.9 124.19 353.42 117.38 347.74Z" fill="#3A596D"/>
</g>
<defs>
<clipPath id="clip0_47_2">
<rect width="378.36" height="462.37" fill="white"/>
</clipPath>
</defs>
</svg>
